<?xml version="1.0" standalone="no"?>
<!DOCTYPE svg PUBLIC "-//W3C//DTD SVG 20010904//EN"
 "http://www.w3.org/TR/2001/REC-SVG-20010904/DTD/svg10.dtd">
<svg version="1.0" xmlns="http://www.w3.org/2000/svg"
 width="512.000000pt" height="512.000000pt" viewBox="0 0 512.000000 512.000000"
 preserveAspectRatio="xMidYMid meet">

<g transform="translate(0.000000,512.000000) scale(0.100000,-0.100000)"
fill="#000000" stroke="none">
<path d="M145 5105 c-51 -18 -120 -91 -134 -141 -15 -55 -15 -4753 0 -4809 14
-51 93 -130 146 -144 59 -17 4752 -15 4807 1 54 16 128 90 144 144 8 28 12
132 12 333 l0 292 -25 24 c-31 32 -69 32 -100 0 -23 -22 -25 -32 -25 -115 l0
-90 -540 0 -540 0 0 395 0 395 540 0 540 0 0 -148 c0 -135 2 -150 20 -170 28
-30 82 -30 110 0 20 22 20 23 20 1937 0 1321 -3 1928 -11 1954 -14 53 -93 132
-144 146 -28 8 -522 11 -1676 11 -1632 0 -1635 0 -1657 -20 -30 -28 -30 -82 0
-110 22 -20 25 -20 1655 -20 l1634 0 24 -25 25 -24 0 -301 0 -300 -2410 0
-2410 0 0 300 0 301 25 24 24 25 581 0 581 0 24 25 c14 13 25 36 25 50 0 14
-11 37 -25 50 l-24 25 -588 0 c-481 -1 -595 -3 -628 -15z m1062 -947 c-3 -7
-129 -288 -281 -625 -152 -336 -276 -618 -276 -626 0 -21 36 -64 58 -69 11 -3
32 0 48 7 27 11 52 62 262 526 l232 514 0 -1172 0 -1173 -530 0 -529 0 28 63
c334 739 441 979 441 990 0 8 -9 26 -21 41 -23 29 -72 36 -102 14 -9 -7 -100
-197 -202 -423 l-185 -410 0 1178 0 1177 531 0 c421 0 530 -3 526 -12z m1283
-613 l0 -625 -545 0 -545 0 0 625 0 625 545 0 545 0 0 -625z m2480 350 l0
-275 -1165 0 -1165 0 0 275 0 275 1165 0 1165 0 0 -275z m0 -695 l0 -270
-1165 0 -1165 0 0 270 0 270 1165 0 1165 0 0 -270z m0 -695 l0 -275 -322 0
c-285 0 -323 -2 -340 -17 -26 -23 -24 -84 3 -109 20 -18 43 -19 340 -22 l319
-3 0 -270 0 -269 -1165 0 -1165 0 0 270 0 269 699 3 c671 3 700 4 720 22 26
23 28 81 4 108 -15 17 -51 18 -720 18 l-703 0 0 275 0 275 1165 0 1165 0 0
-275z m-2480 -350 l0 -615 -545 0 -545 0 0 615 0 615 545 0 545 0 0 -615z
m-1240 -1160 l0 -395 -550 0 -550 0 0 395 0 395 550 0 550 0 0 -395z m1240 0
l0 -395 -545 0 -545 0 0 395 0 395 545 0 545 0 0 -395z m1250 0 l0 -395 -550
0 -550 0 0 395 0 395 550 0 550 0 0 -395z m-2490 -695 l0 -150 -525 0 -526 0
-24 25 c-24 23 -25 30 -25 150 l0 125 550 0 550 0 0 -150z m790 0 l0 -150
-320 0 -320 0 0 150 0 150 320 0 320 0 0 -150z m450 0 l0 -150 -150 0 -150 0
0 150 0 150 150 0 150 0 0 -150z m1250 0 l0 -150 -550 0 -550 0 0 150 0 150
550 0 550 0 0 -150z m790 0 l0 -150 -320 0 -320 0 0 150 0 150 320 0 320 0 0
-150z m440 25 c0 -120 -1 -127 -25 -150 -23 -24 -30 -25 -145 -25 l-120 0 0
150 0 150 145 0 145 0 0 -125z"/>
<path d="M1520 3968 c-37 -40 -21 -97 34 -118 37 -14 745 -14 782 0 55 21 71
78 34 118 -21 22 -22 22 -425 22 -403 0 -404 0 -425 -22z"/>
<path d="M1520 3718 c-37 -40 -21 -97 34 -118 37 -14 745 -14 782 0 55 21 71
78 34 118 -21 22 -22 22 -425 22 -403 0 -404 0 -425 -22z"/>
<path d="M1520 3468 c-37 -40 -21 -97 34 -118 37 -14 745 -14 782 0 55 21 71
78 34 118 -21 22 -22 22 -425 22 -403 0 -404 0 -425 -22z"/>
<path d="M1520 3218 c-37 -40 -21 -97 34 -118 37 -14 745 -14 782 0 55 21 71
78 34 118 -21 22 -22 22 -425 22 -403 0 -404 0 -425 -22z"/>
<path d="M2955 3945 c-14 -13 -25 -36 -25 -50 0 -14 11 -37 25 -50 l24 -25
816 0 816 0 24 25 c32 31 32 69 0 100 l-24 25 -816 0 -816 0 -24 -25z"/>
<path d="M2950 3248 c-37 -40 -21 -97 34 -118 38 -14 1584 -14 1622 0 55 21
71 78 34 118 l-21 22 -824 0 -824 0 -21 -22z"/>
<path d="M2950 2558 c-37 -40 -21 -97 34 -118 38 -14 1584 -14 1622 0 55 21
71 78 34 118 l-21 22 -824 0 -824 0 -21 -22z"/>
<path d="M2950 1858 c-37 -40 -21 -97 34 -118 38 -14 1584 -14 1622 0 55 21
71 78 34 118 l-21 22 -824 0 -824 0 -21 -22z"/>
<path d="M1520 2578 c-37 -40 -21 -97 34 -118 37 -14 745 -14 782 0 55 21 71
78 34 118 -21 22 -22 22 -425 22 -403 0 -404 0 -425 -22z"/>
<path d="M1520 2328 c-37 -40 -21 -97 34 -118 37 -14 745 -14 782 0 55 21 71
78 34 118 -21 22 -22 22 -425 22 -403 0 -404 0 -425 -22z"/>
<path d="M1520 2078 c-37 -40 -21 -97 34 -118 37 -14 745 -14 782 0 55 21 71
78 34 118 -21 22 -22 22 -425 22 -403 0 -404 0 -425 -22z"/>
<path d="M1520 1828 c-37 -40 -21 -97 34 -118 37 -14 745 -14 782 0 55 21 71
78 34 118 -21 22 -22 22 -425 22 -403 0 -404 0 -425 -22z"/>
<path d="M277 1172 c-24 -27 -22 -85 4 -108 20 -18 42 -19 419 -19 377 0 399
1 419 19 27 25 29 86 3 109 -17 15 -61 17 -424 17 -380 0 -406 -1 -421 -18z"/>
<path d="M277 922 c-24 -27 -22 -85 4 -108 20 -18 42 -19 419 -19 377 0 399 1
419 19 27 25 29 86 3 109 -17 15 -61 17 -424 17 -380 0 -406 -1 -421 -18z"/>
<path d="M1846 1250 c-100 -39 -176 -149 -176 -255 0 -144 131 -275 275 -275
107 0 217 76 255 178 84 220 -135 437 -354 352z m155 -145 c63 -33 86 -112 49
-172 -50 -82 -160 -82 -210 0 -36 59 -18 130 43 167 39 24 78 25 118 5z"/>
<path d="M395 4855 c-51 -18 -120 -91 -134 -141 -25 -91 -7 -162 59 -226 95
-92 217 -91 310 2 93 93 93 216 0 311 -64 67 -146 85 -235 54z m130 -160 c14
-13 25 -36 25 -50 0 -33 -42 -75 -75 -75 -33 0 -75 42 -75 75 0 33 42 75 75
75 14 0 37 -11 50 -25z"/>
<path d="M955 4855 c-51 -18 -120 -91 -134 -141 -25 -91 -7 -162 59 -226 95
-92 217 -91 310 2 93 93 93 216 0 311 -64 67 -146 85 -235 54z m130 -160 c14
-13 25 -36 25 -50 0 -33 -42 -75 -75 -75 -33 0 -75 42 -75 75 0 33 42 75 75
75 14 0 37 -11 50 -25z"/>
<path d="M1515 4855 c-51 -18 -120 -91 -134 -141 -25 -91 -7 -162 59 -226 95
-92 217 -91 310 2 93 93 93 216 0 311 -64 67 -146 85 -235 54z m130 -160 c14
-13 25 -36 25 -50 0 -33 -42 -75 -75 -75 -33 0 -75 42 -75 75 0 33 42 75 75
75 14 0 37 -11 50 -25z"/>
</g>
</svg>
